# xmcd
#
# Track frame offsets: 
#        150
#        11524
#        20264
#        30806
#        43733
#        55057
#        66031
#        85603
#        110480
#        125280
#
# Disc length: 2291 seconds
#
# Revision: 0
# Processed by: cddbd v1.5.2PL0 Copyright (c) Steve Scherf et al.
# Submitted via: ExactAudioCopy v0.95b4
#
DISCID=6b08f10a
DTITLE=Guitar Gabriel - Toot Blues
DYEAR=1991
DGENRE=Blues
TTITLE0=Do You Know, What It Means To Have A Friend?
TTITLE1=Came Home In The Morning
TTITLE2=Just A Little Bit
TTITLE3=Landlord Blues
TTITLE4=Jesus, Keep Me Near The Cross
TTITLE5=Amazing Grace
TTITLE6=Careless Love
TTITLE7=Done Got Tired
TTITLE8=She's Been Gone Too Long
TTITLE9=I Got The Right To Cry
EXTD=
EXTT0=
EXTT1=
EXTT2=
EXTT3=
EXTT4=
EXTT5=
EXTT6=
EXTT7=
EXTT8=
EXTT9=
PLAYORDER=
